<svg width="72" height="71" viewBox="0 0 72 71" fill="none" xmlns="http://www.w3.org/2000/svg">
<ellipse cx="35.9688" cy="35.4962" rx="35.1562" ry="35.4962" fill="#F9F9F9"/>
<mask id="path-2-inside-1_335_11533" fill="white">
<path fill-rule="evenodd" clip-rule="evenodd" d="M36.3074 27.5242C36.4072 27.4919 36.5148 27.4919 36.6147 27.5242L43.2637 29.6713C43.8061 29.8465 43.68 30.6471 43.1101 30.6471H29.8119C29.242 30.6471 29.1159 29.8465 29.6583 29.6713L36.3074 27.5242ZM36.9219 26.5726C36.6223 26.4758 36.2997 26.4758 36.0001 26.5726L29.351 28.7197C27.724 29.2451 28.1022 31.6471 29.8119 31.6471H43.1101C44.8198 31.6471 45.198 29.2451 43.571 28.7197L36.9219 26.5726ZM31.5975 33V33.4899V38.4909V38.9808C31.5975 39.2569 31.3737 39.4808 31.0975 39.4808C30.8214 39.4808 30.5975 39.2569 30.5975 38.9808V38.4909V33.4899V33C30.5975 32.7239 30.8214 32.5 31.0975 32.5C31.3737 32.5 31.5975 32.7239 31.5975 33ZM35.0249 33V33.4899V38.4901V38.98C35.0249 39.2561 34.801 39.48 34.5249 39.48C34.2487 39.48 34.0249 39.2561 34.0249 38.98V38.4901V33.4899V33C34.0249 32.7239 34.2487 32.5 34.5249 32.5C34.801 32.5 35.0249 32.7239 35.0249 33ZM38.4522 33V33.4899V38.4901V38.98C38.4522 39.2561 38.2284 39.48 37.9522 39.48C37.6761 39.48 37.4522 39.2561 37.4522 38.98V38.4901V33.4899V33C37.4522 32.7239 37.6761 32.5 37.9522 32.5C38.2284 32.5 38.4522 32.7239 38.4522 33ZM41.8796 33V33.4899V38.4901V38.98C41.8796 39.2561 41.6557 39.48 41.3796 39.48C41.1034 39.48 40.8796 39.2561 40.8796 38.98V38.4901V33.4899V33C40.8796 32.7239 41.1034 32.5 41.3796 32.5C41.6557 32.5 41.8796 32.7239 41.8796 33ZM26.5 43.5C26.5 43.2239 26.7239 43 27 43H45C45.2761 43 45.5 43.2239 45.5 43.5C45.5 43.7761 45.2761 44 45 44H27C26.7239 44 26.5 43.7761 26.5 43.5ZM29 41C28.7239 41 28.5 41.2239 28.5 41.5C28.5 41.7761 28.7239 42 29 42H42C42.2761 42 42.5 41.7761 42.5 41.5C42.5 41.2239 42.2761 41 42 41H29Z"/>
</mask>
<path d="M36.6147 27.5242L36.9219 26.5726L36.9219 26.5726L36.6147 27.5242ZM36.3074 27.5242L36.6147 28.4758L36.6147 28.4758L36.3074 27.5242ZM43.2637 29.6713L43.571 28.7197L43.2637 29.6713ZM29.6583 29.6713L29.9656 30.6229H29.9656L29.6583 29.6713ZM36.0001 26.5726L35.6928 25.621L35.6928 25.621L36.0001 26.5726ZM36.9219 26.5726L37.2292 25.621L37.2292 25.621L36.9219 26.5726ZM29.351 28.7197L29.0437 27.7681L29.351 28.7197ZM43.571 28.7197L43.2637 29.6713V29.6713L43.571 28.7197ZM36.9219 26.5726C36.6223 26.4758 36.2997 26.4758 36.0001 26.5726L36.6147 28.4758C36.5148 28.5081 36.4072 28.5081 36.3074 28.4758L36.9219 26.5726ZM43.571 28.7197L36.9219 26.5726L36.3074 28.4758L42.9564 30.6229L43.571 28.7197ZM43.1101 31.6471C44.8199 31.6471 45.198 29.2451 43.571 28.7197L42.9564 30.6229C42.855 30.5902 42.7446 30.5091 42.6751 30.3844C42.6125 30.272 42.602 30.1595 42.6162 30.0694C42.6304 29.9793 42.675 29.8754 42.7691 29.7877C42.8735 29.6904 43.0035 29.6471 43.1101 29.6471V31.6471ZM29.8119 31.6471H43.1101V29.6471H29.8119V31.6471ZM29.351 28.7197C27.724 29.2451 28.1022 31.6471 29.8119 31.6471V29.6471C29.9186 29.6471 30.0485 29.6904 30.153 29.7877C30.247 29.8754 30.2916 29.9793 30.3058 30.0694C30.32 30.1595 30.3095 30.272 30.2469 30.3844C30.1774 30.5091 30.067 30.5902 29.9656 30.6229L29.351 28.7197ZM36.0001 26.5726L29.351 28.7197L29.9656 30.6229L36.6147 28.4758L36.0001 26.5726ZM36.3074 27.5242C36.4072 27.4919 36.5148 27.4919 36.6147 27.5242L37.2292 25.621C36.7298 25.4597 36.1922 25.4597 35.6928 25.621L36.3074 27.5242ZM29.6583 29.6713L36.3074 27.5242L35.6928 25.621L29.0437 27.7681L29.6583 29.6713ZM29.8119 30.6471C29.6336 30.6471 29.5341 30.5903 29.4715 30.532C29.3987 30.4641 29.3388 30.3569 29.318 30.2249C29.2972 30.0929 29.3212 29.9725 29.3697 29.8855C29.4113 29.8108 29.4886 29.7261 29.6583 29.6713L29.0437 27.7681C26.332 28.6438 26.9624 32.6471 29.8119 32.6471V30.6471ZM43.1101 30.6471H29.8119V32.6471H43.1101V30.6471ZM43.2637 29.6713C43.4334 29.7261 43.5107 29.8108 43.5523 29.8855C43.6008 29.9725 43.6248 30.0929 43.604 30.2249C43.5832 30.3569 43.5234 30.4641 43.4505 30.532C43.3879 30.5903 43.2884 30.6471 43.1101 30.6471V32.6471C45.9596 32.6471 46.59 28.6438 43.8783 27.7681L43.2637 29.6713ZM36.6147 27.5242L43.2637 29.6713L43.8783 27.7681L37.2292 25.621L36.6147 27.5242ZM32.5975 33.4899V33H30.5975V33.4899H32.5975ZM32.5975 38.4909V33.4899H30.5975V38.4909H32.5975ZM32.5975 38.9808V38.4909H30.5975V38.9808H32.5975ZM31.0975 40.4808C31.926 40.4808 32.5975 39.8092 32.5975 38.9808H30.5975C30.5975 38.7046 30.8214 38.4808 31.0975 38.4808V40.4808ZM29.5975 38.9808C29.5975 39.8092 30.2691 40.4808 31.0975 40.4808V38.4808C31.3737 38.4808 31.5975 38.7046 31.5975 38.9808H29.5975ZM29.5975 38.4909V38.9808H31.5975V38.4909H29.5975ZM29.5975 33.4899V38.4909H31.5975V33.4899H29.5975ZM29.5975 33V33.4899H31.5975V33H29.5975ZM31.0975 31.5C30.2691 31.5 29.5975 32.1716 29.5975 33H31.5975C31.5975 33.2761 31.3737 33.5 31.0975 33.5V31.5ZM32.5975 33C32.5975 32.1716 31.926 31.5 31.0975 31.5V33.5C30.8214 33.5 30.5975 33.2761 30.5975 33H32.5975ZM36.0249 33.4899V33H34.0249V33.4899H36.0249ZM36.0249 38.4901V33.4899H34.0249V38.4901H36.0249ZM36.0249 38.98V38.4901H34.0249V38.98H36.0249ZM34.5249 40.48C35.3533 40.48 36.0249 39.8084 36.0249 38.98H34.0249C34.0249 38.7039 34.2487 38.48 34.5249 38.48V40.48ZM33.0249 38.98C33.0249 39.8084 33.6964 40.48 34.5249 40.48V38.48C34.801 38.48 35.0249 38.7039 35.0249 38.98H33.0249ZM33.0249 38.4901V38.98H35.0249V38.4901H33.0249ZM33.0249 33.4899V38.4901H35.0249V33.4899H33.0249ZM33.0249 33V33.4899H35.0249V33H33.0249ZM34.5249 31.5C33.6964 31.5 33.0249 32.1716 33.0249 33H35.0249C35.0249 33.2761 34.801 33.5 34.5249 33.5V31.5ZM36.0249 33C36.0249 32.1716 35.3533 31.5 34.5249 31.5V33.5C34.2487 33.5 34.0249 33.2761 34.0249 33H36.0249ZM39.4522 33.4899V33H37.4522V33.4899H39.4522ZM39.4522 38.4901V33.4899H37.4522V38.4901H39.4522ZM39.4522 38.98V38.4901H37.4522V38.98H39.4522ZM37.9522 40.48C38.7806 40.48 39.4522 39.8084 39.4522 38.98H37.4522C37.4522 38.7039 37.6761 38.48 37.9522 38.48V40.48ZM36.4522 38.98C36.4522 39.8084 37.1238 40.48 37.9522 40.48V38.48C38.2284 38.48 38.4522 38.7039 38.4522 38.98H36.4522ZM36.4522 38.4901V38.98H38.4522V38.4901H36.4522ZM36.4522 33.4899V38.4901H38.4522V33.4899H36.4522ZM36.4522 33V33.4899H38.4522V33H36.4522ZM37.9522 31.5C37.1238 31.5 36.4522 32.1716 36.4522 33H38.4522C38.4522 33.2761 38.2284 33.5 37.9522 33.5V31.5ZM39.4522 33C39.4522 32.1716 38.7806 31.5 37.9522 31.5V33.5C37.6761 33.5 37.4522 33.2761 37.4522 33H39.4522ZM42.8796 33.4899V33H40.8796V33.4899H42.8796ZM42.8796 38.4901V33.4899H40.8796V38.4901H42.8796ZM42.8796 38.98V38.4901H40.8796V38.98H42.8796ZM41.3796 40.48C42.208 40.48 42.8796 39.8084 42.8796 38.98H40.8796C40.8796 38.7039 41.1034 38.48 41.3796 38.48V40.48ZM39.8796 38.98C39.8796 39.8084 40.5511 40.48 41.3796 40.48V38.48C41.6557 38.48 41.8796 38.7039 41.8796 38.98H39.8796ZM39.8796 38.4901V38.98H41.8796V38.4901H39.8796ZM39.8796 33.4899V38.4901H41.8796V33.4899H39.8796ZM39.8796 33V33.4899H41.8796V33H39.8796ZM41.3796 31.5C40.5511 31.5 39.8796 32.1716 39.8796 33H41.8796C41.8796 33.2761 41.6557 33.5 41.3796 33.5V31.5ZM42.8796 33C42.8796 32.1716 42.208 31.5 41.3796 31.5V33.5C41.1034 33.5 40.8796 33.2761 40.8796 33H42.8796ZM27 42C26.1716 42 25.5 42.6716 25.5 43.5H27.5C27.5 43.7761 27.2761 44 27 44V42ZM45 42H27V44H45V42ZM46.5 43.5C46.5 42.6716 45.8284 42 45 42V44C44.7239 44 44.5 43.7761 44.5 43.5H46.5ZM45 45C45.8284 45 46.5 44.3284 46.5 43.5H44.5C44.5 43.2239 44.7239 43 45 43V45ZM27 45H45V43H27V45ZM25.5 43.5C25.5 44.3284 26.1716 45 27 45V43C27.2761 43 27.5 43.2239 27.5 43.5H25.5ZM29.5 41.5C29.5 41.7761 29.2761 42 29 42V40C28.1716 40 27.5 40.6716 27.5 41.5H29.5ZM29 41C29.2761 41 29.5 41.2239 29.5 41.5H27.5C27.5 42.3284 28.1716 43 29 43V41ZM42 41H29V43H42V41ZM41.5 41.5C41.5 41.2239 41.7239 41 42 41V43C42.8284 43 43.5 42.3284 43.5 41.5H41.5ZM42 42C41.7239 42 41.5 41.7761 41.5 41.5H43.5C43.5 40.6716 42.8284 40 42 40V42ZM29 42H42V40H29V42Z" fill="#979797" mask="url(#path-2-inside-1_335_11533)"/>
</svg>
