<svg width="72" height="71" viewBox="0 0 72 71" fill="none" xmlns="http://www.w3.org/2000/svg">
<ellipse cx="35.9688" cy="35.4962" rx="35.1562" ry="35.4962" fill="#F4A11D"/>
<mask id="path-2-inside-1_335_12325" fill="white">
<path fill-rule="evenodd" clip-rule="evenodd" d="M36.3074 27.5242C36.4072 27.4919 36.5148 27.4919 36.6147 27.5242L43.2637 29.6713C43.8061 29.8465 43.68 30.6471 43.1101 30.6471H29.8119C29.242 30.6471 29.1159 29.8465 29.6583 29.6713L36.3074 27.5242ZM36.9219 26.5726C36.6223 26.4758 36.2997 26.4758 36.0001 26.5726L29.351 28.7197C27.724 29.2451 28.1022 31.6471 29.8119 31.6471H43.1101C44.8198 31.6471 45.198 29.2451 43.571 28.7197L36.9219 26.5726ZM31.5975 33V33.4899V38.4909V38.9808C31.5975 39.2569 31.3737 39.4808 31.0975 39.4808C30.8214 39.4808 30.5975 39.2569 30.5975 38.9808V38.4909V33.4899V33C30.5975 32.7239 30.8214 32.5 31.0975 32.5C31.3737 32.5 31.5975 32.7239 31.5975 33ZM35.0249 33V33.4899V38.4901V38.98C35.0249 39.2561 34.801 39.48 34.5249 39.48C34.2487 39.48 34.0249 39.2561 34.0249 38.98V38.4901V33.4899V33C34.0249 32.7239 34.2487 32.5 34.5249 32.5C34.801 32.5 35.0249 32.7239 35.0249 33ZM38.4522 33V33.4899V38.4901V38.98C38.4522 39.2561 38.2284 39.48 37.9522 39.48C37.6761 39.48 37.4522 39.2561 37.4522 38.98V38.4901V33.4899V33C37.4522 32.7239 37.6761 32.5 37.9522 32.5C38.2284 32.5 38.4522 32.7239 38.4522 33ZM41.8796 33V33.4899V38.4901V38.98C41.8796 39.2561 41.6557 39.48 41.3796 39.48C41.1034 39.48 40.8796 39.2561 40.8796 38.98V38.4901V33.4899V33C40.8796 32.7239 41.1034 32.5 41.3796 32.5C41.6557 32.5 41.8796 32.7239 41.8796 33ZM26.5 43.5C26.5 43.2239 26.7239 43 27 43H45C45.2761 43 45.5 43.2239 45.5 43.5C45.5 43.7761 45.2761 44 45 44H27C26.7239 44 26.5 43.7761 26.5 43.5ZM29 41C28.7239 41 28.5 41.2239 28.5 41.5C28.5 41.7761 28.7239 42 29 42H42C42.2761 42 42.5 41.7761 42.5 41.5C42.5 41.2239 42.2761 41 42 41H29Z"/>
</mask>
<path d="M36.6147 27.5242L37.0756 26.0968L37.0756 26.0968L36.6147 27.5242ZM36.3074 27.5242L36.7683 28.9516L36.7683 28.9516L36.3074 27.5242ZM43.2637 29.6713L43.7247 28.2439V28.2439L43.2637 29.6713ZM29.6583 29.6713L30.1192 31.0987H30.1192L29.6583 29.6713ZM36.0001 26.5726L35.5391 25.1452L35.5391 25.1452L36.0001 26.5726ZM36.9219 26.5726L37.3829 25.1452L37.3829 25.1452L36.9219 26.5726ZM29.351 28.7197L28.89 27.2923L28.89 27.2923L29.351 28.7197ZM43.571 28.7197L43.1101 30.1471V30.1471L43.571 28.7197ZM37.0756 26.0968C36.676 25.9677 36.246 25.9677 35.8464 26.0968L36.7683 28.9516C36.5685 29.0161 36.3535 29.0161 36.1537 28.9516L37.0756 26.0968ZM43.7247 28.2439L37.0756 26.0968L36.1537 28.9516L42.8028 31.0987L43.7247 28.2439ZM43.1101 32.1471C45.3898 32.1471 45.8939 28.9444 43.7247 28.2439L42.8028 31.0987C41.7182 30.7485 41.9702 29.1471 43.1101 29.1471V32.1471ZM29.8119 32.1471H43.1101V29.1471H29.8119V32.1471ZM29.1973 28.2439C27.028 28.9444 27.5323 32.1471 29.8119 32.1471V29.1471C30.9517 29.1471 31.2039 30.7485 30.1192 31.0987L29.1973 28.2439ZM35.8464 26.0968L29.1973 28.2439L30.1192 31.0987L36.7683 28.9516L35.8464 26.0968ZM36.461 28L36.461 28L37.3829 25.1452C36.7835 24.9516 36.1385 24.9516 35.5391 25.1452L36.461 28ZM29.8119 30.1471L36.461 28L35.5391 25.1452L28.89 27.2923L29.8119 30.1471ZM29.8119 30.1471C29.7931 30.1471 29.7825 30.1455 29.7786 30.1448C29.7748 30.1441 29.7758 30.144 29.7802 30.1457C29.7846 30.1474 29.7904 30.1502 29.7967 30.1542C29.8029 30.1581 29.8082 30.1623 29.8124 30.1662C29.8208 30.1741 29.8221 30.1781 29.82 30.174C29.819 30.172 29.8174 30.1686 29.8158 30.1637C29.8143 30.1588 29.8129 30.1532 29.8119 30.1471C29.811 30.141 29.8105 30.1353 29.8105 30.1301C29.8106 30.125 29.811 30.1213 29.8113 30.1191C29.8121 30.1146 29.8121 30.1188 29.8065 30.1288C29.8037 30.1338 29.8 30.1395 29.7953 30.1451C29.7905 30.1508 29.7859 30.1553 29.7822 30.1583C29.7785 30.1613 29.7775 30.1614 29.7809 30.1596C29.7844 30.1577 29.794 30.1529 29.8119 30.1471L28.89 27.2923C25.636 28.3431 26.3925 33.1471 29.8119 33.1471V30.1471ZM43.1101 30.1471H29.8119V33.1471H43.1101V30.1471ZM43.1101 30.1471C43.128 30.1529 43.1376 30.1577 43.1411 30.1596C43.1445 30.1614 43.1435 30.1613 43.1398 30.1583C43.1362 30.1553 43.1315 30.1508 43.1267 30.1451C43.122 30.1395 43.1183 30.1338 43.1155 30.1288C43.1099 30.1188 43.1099 30.1146 43.1107 30.1191C43.111 30.1213 43.1115 30.125 43.1115 30.1301C43.1115 30.1353 43.1111 30.141 43.1101 30.1471C43.1091 30.1532 43.1077 30.1588 43.1062 30.1637C43.1046 30.1686 43.103 30.172 43.102 30.174C43.0999 30.1781 43.1012 30.1741 43.1096 30.1662C43.1138 30.1623 43.1191 30.1581 43.1253 30.1542C43.1316 30.1502 43.1374 30.1474 43.1418 30.1457C43.1462 30.144 43.1472 30.1441 43.1434 30.1448C43.1396 30.1455 43.1289 30.1471 43.1101 30.1471V33.1471C46.5295 33.1471 47.286 28.3431 44.032 27.2923L43.1101 30.1471ZM36.461 28L43.1101 30.1471L44.032 27.2923L37.3829 25.1452L36.461 28ZM33.0975 33.4899V33H30.0975V33.4899H33.0975ZM33.0975 38.4909V33.4899H30.0975V38.4909H33.0975ZM33.0975 38.9808V38.4909H30.0975V38.9808H33.0975ZM31.0975 40.9808C32.2021 40.9808 33.0975 40.0853 33.0975 38.9808H30.0975C30.0975 38.4285 30.5452 37.9808 31.0975 37.9808V40.9808ZM29.0975 38.9808C29.0975 40.0853 29.993 40.9808 31.0975 40.9808V37.9808C31.6498 37.9808 32.0975 38.4285 32.0975 38.9808H29.0975ZM29.0975 38.4909V38.9808H32.0975V38.4909H29.0975ZM29.0975 33.4899V38.4909H32.0975V33.4899H29.0975ZM29.0975 33V33.4899H32.0975V33H29.0975ZM31.0975 31C29.993 31 29.0975 31.8954 29.0975 33H32.0975C32.0975 33.5523 31.6498 34 31.0975 34V31ZM33.0975 33C33.0975 31.8954 32.2021 31 31.0975 31V34C30.5452 34 30.0975 33.5523 30.0975 33H33.0975ZM36.5249 33.4899V33H33.5249V33.4899H36.5249ZM36.5249 38.4901V33.4899H33.5249V38.4901H36.5249ZM36.5249 38.98V38.4901H33.5249V38.98H36.5249ZM34.5249 40.98C35.6294 40.98 36.5249 40.0846 36.5249 38.98H33.5249C33.5249 38.4277 33.9726 37.98 34.5249 37.98V40.98ZM32.5249 38.98C32.5249 40.0846 33.4203 40.98 34.5249 40.98V37.98C35.0772 37.98 35.5249 38.4277 35.5249 38.98H32.5249ZM32.5249 38.4901V38.98H35.5249V38.4901H32.5249ZM32.5249 33.4899V38.4901H35.5249V33.4899H32.5249ZM32.5249 33V33.4899H35.5249V33H32.5249ZM34.5249 31C33.4203 31 32.5249 31.8954 32.5249 33H35.5249C35.5249 33.5523 35.0772 34 34.5249 34V31ZM36.5249 33C36.5249 31.8954 35.6294 31 34.5249 31V34C33.9726 34 33.5249 33.5523 33.5249 33H36.5249ZM39.9522 33.4899V33H36.9522V33.4899H39.9522ZM39.9522 38.4901V33.4899H36.9522V38.4901H39.9522ZM39.9522 38.98V38.4901H36.9522V38.98H39.9522ZM37.9522 40.98C39.0568 40.98 39.9522 40.0846 39.9522 38.98H36.9522C36.9522 38.4277 37.3999 37.98 37.9522 37.98V40.98ZM35.9522 38.98C35.9522 40.0846 36.8476 40.98 37.9522 40.98V37.98C38.5045 37.98 38.9522 38.4277 38.9522 38.98H35.9522ZM35.9522 38.4901V38.98H38.9522V38.4901H35.9522ZM35.9522 33.4899V38.4901H38.9522V33.4899H35.9522ZM35.9522 33V33.4899H38.9522V33H35.9522ZM37.9522 31C36.8476 31 35.9522 31.8954 35.9522 33H38.9522C38.9522 33.5523 38.5045 34 37.9522 34V31ZM39.9522 33C39.9522 31.8954 39.0568 31 37.9522 31V34C37.3999 34 36.9522 33.5523 36.9522 33H39.9522ZM43.3796 33.4899V33H40.3796V33.4899H43.3796ZM43.3796 38.4901V33.4899H40.3796V38.4901H43.3796ZM43.3796 38.98V38.4901H40.3796V38.98H43.3796ZM41.3796 40.98C42.4841 40.98 43.3796 40.0846 43.3796 38.98H40.3796C40.3796 38.4277 40.8273 37.98 41.3796 37.98V40.98ZM39.3796 38.98C39.3796 40.0846 40.275 40.98 41.3796 40.98V37.98C41.9318 37.98 42.3796 38.4277 42.3796 38.98H39.3796ZM39.3796 38.4901V38.98H42.3796V38.4901H39.3796ZM39.3796 33.4899V38.4901H42.3796V33.4899H39.3796ZM39.3796 33V33.4899H42.3796V33H39.3796ZM41.3796 31C40.275 31 39.3796 31.8954 39.3796 33H42.3796C42.3796 33.5523 41.9318 34 41.3796 34V31ZM43.3796 33C43.3796 31.8954 42.4841 31 41.3796 31V34C40.8273 34 40.3796 33.5523 40.3796 33H43.3796ZM27 41.5C25.8954 41.5 25 42.3954 25 43.5H28C28 44.0523 27.5523 44.5 27 44.5V41.5ZM45 41.5H27V44.5H45V41.5ZM47 43.5C47 42.3954 46.1046 41.5 45 41.5V44.5C44.4477 44.5 44 44.0523 44 43.5H47ZM45 45.5C46.1046 45.5 47 44.6046 47 43.5H44C44 42.9477 44.4477 42.5 45 42.5V45.5ZM27 45.5H45V42.5H27V45.5ZM25 43.5C25 44.6046 25.8954 45.5 27 45.5V42.5C27.5523 42.5 28 42.9477 28 43.5H25ZM30 41.5C30 42.0523 29.5523 42.5 29 42.5V39.5C27.8954 39.5 27 40.3954 27 41.5H30ZM29 40.5C29.5523 40.5 30 40.9477 30 41.5H27C27 42.6046 27.8954 43.5 29 43.5V40.5ZM42 40.5H29V43.5H42V40.5ZM41 41.5C41 40.9477 41.4477 40.5 42 40.5V43.5C43.1046 43.5 44 42.6046 44 41.5H41ZM42 42.5C41.4477 42.5 41 42.0523 41 41.5H44C44 40.3954 43.1046 39.5 42 39.5V42.5ZM29 42.5H42V39.5H29V42.5Z" fill="white" mask="url(#path-2-inside-1_335_12325)"/>
</svg>
