<svg width="11" height="6" viewBox="0 0 11 6" fill="none" xmlns="http://www.w3.org/2000/svg">
<path d="M10.877 0.792398C10.877 0.414721 10.5838 0.121598 10.2118 0.121598C10.0258 0.121598 9.85666 0.194879 9.72701 0.324529L5.87132 4.27041L2.0269 0.324529C1.89725 0.194879 1.7225 0.121598 1.54212 0.121598C1.17008 0.121598 0.876953 0.414721 0.876953 0.792398C0.876953 0.972782 0.944597 1.13062 1.06861 1.25463L5.35271 5.6402C5.49928 5.79804 5.67966 5.87695 5.87695 5.87695C6.07425 5.87695 6.24336 5.79804 6.39556 5.64584L10.6853 1.26027C10.8093 1.13062 10.877 0.972782 10.877 0.792398Z" fill="#353D46"/>
</svg>
