<svg width="43" height="39" viewBox="0 0 43 39" fill="none" xmlns="http://www.w3.org/2000/svg">
<path opacity="0.4" d="M5.73264 38.2453C5.70527 38.2453 5.68001 38.2453 5.65053 38.2432C4.98737 38.2095 4.33685 38.0663 3.7179 37.8158C0.671584 36.5779 -0.79789 33.0979 0.4379 30.0537L15.8505 3.05161C16.3811 2.09161 17.1853 1.2874 18.1663 0.74424C21.04 -0.847339 24.6737 0.198977 26.2632 3.07056L41.5747 29.8663C41.9158 30.6684 42.0611 31.3211 42.0968 31.9863C42.179 33.5779 41.6358 35.1042 40.5705 36.2853C39.5053 37.4663 38.0421 38.1632 36.4526 38.2432L5.88422 38.2453H5.73264Z" fill="black"/>
<path fill-rule="evenodd" clip-rule="evenodd" d="M19.2109 14.7786C19.2109 13.7639 20.0383 12.9365 21.053 12.9365C22.0678 12.9365 22.8951 13.7639 22.8951 14.7786V20.7323C22.8951 21.7492 22.0678 22.5744 21.053 22.5744C20.0383 22.5744 19.2109 21.7492 19.2109 20.7323V14.7786ZM19.2109 27.9346C19.2109 26.9136 20.0383 26.082 21.053 26.082C22.0678 26.082 22.8951 26.903 22.8951 27.9115C22.8951 28.9494 22.0678 29.7767 21.053 29.7767C20.0383 29.7767 19.2109 28.9494 19.2109 27.9346Z" fill="white"/>
</svg>
