<svg width="146" height="142" viewBox="0 0 146 142" fill="none" xmlns="http://www.w3.org/2000/svg">
<circle cx="70.66" cy="71.9434" r="49.7701" transform="rotate(39 70.66 71.9434)" fill="white"/>
<path fill-rule="evenodd" clip-rule="evenodd" d="M112.423 70.2738C112.014 71.3433 112.253 72.2981 112.995 73.6907C115.313 72.7765 116.782 72.5029 119.156 72.56C118.668 71.5152 118.676 70.6587 119.011 68.9725C116.595 68.9382 114.754 69.3843 112.423 70.2738Z" fill="#F0B84F"/>
<path fill-rule="evenodd" clip-rule="evenodd" d="M105.066 64.8586C105.272 65.0463 105.412 65.2518 105.553 65.5611C105.994 65.0147 106.319 64.6717 106.749 64.3541C106.687 63.9905 106.563 63.8269 106.355 63.6289C106.03 63.8454 105.554 64.295 105.066 64.8586Z" fill="#CEDA42"/>
<path fill-rule="evenodd" clip-rule="evenodd" d="M113.568 65.9429C114.274 66.3932 114.887 66.6819 115.586 66.7108C115.912 66.2591 116.024 65.912 116.029 65.4796C115.186 65.3765 114.729 65.1964 114.048 64.707C114.045 65.2844 113.957 65.6219 113.568 65.9429Z" fill="#426BA6"/>
<path fill-rule="evenodd" clip-rule="evenodd" d="M67.5635 30.8584C67.9904 30.1524 68.708 29.6225 70.6444 29.1007C70.2855 28.3103 69.759 27.7232 68.8338 27.1582C67.4473 27.7452 66.6699 28.2071 65.6973 29.2987C66.5283 29.6183 66.9208 30.0136 67.5635 30.8584Z" fill="#F0B84F"/>
<path fill-rule="evenodd" clip-rule="evenodd" d="M90.2356 30.733C90.1339 30.3419 90.0122 30.0387 89.7751 29.7988C89.5118 29.8511 89.3578 29.937 89.2148 30.0882C89.4774 30.401 89.5805 30.6154 89.6603 31.0114C89.8507 30.8086 89.993 30.7179 90.2356 30.733Z" fill="#426BA6"/>
<path fill-rule="evenodd" clip-rule="evenodd" d="M109.055 94.6552C109.337 94.748 109.493 94.8724 109.614 95.2071C109.881 94.9212 109.99 94.671 110.158 94.2036C110.054 93.9444 109.924 93.8516 109.623 93.752C109.475 94.152 109.341 94.429 109.055 94.6552Z" fill="#DA2C56"/>
<path fill-rule="evenodd" clip-rule="evenodd" d="M91.8333 108.321C91.9021 108.251 91.9811 108.207 92.1145 108.206C92.0176 107.892 91.9165 107.705 91.7515 107.439C91.5625 107.468 91.467 107.527 91.4023 107.577C91.6388 107.814 91.7282 108.011 91.8333 108.321Z" fill="#F0B84F"/>
<path fill-rule="evenodd" clip-rule="evenodd" d="M101.101 43.7754C100.644 43.9197 100.421 44.2236 100.07 44.7315C101.209 45.4526 102.203 46.5586 103.233 47.9464C103.535 47.5498 103.817 47.3787 104.333 47.1958C103.331 45.6629 102.636 44.8931 101.101 43.7754Z" fill="#CEDA42"/>
<path fill-rule="evenodd" clip-rule="evenodd" d="M23.1901 55.7961C23.0375 55.0667 23.0024 54.6825 23.1915 54.079C22.8959 54.0577 22.7165 53.9992 22.5914 53.8535C22.3432 54.4914 22.3288 54.9719 22.4223 55.7603C22.6869 55.8462 22.9323 55.8469 23.1901 55.7961Z" fill="#426BA6"/>
<path fill-rule="evenodd" clip-rule="evenodd" d="M48.2201 113.552C48.0421 113.822 48.0531 114.078 48.0854 114.493C48.9921 114.388 49.9853 114.545 51.1181 114.835C51.1085 114.499 51.1834 114.289 51.3766 113.972C50.197 113.593 49.5035 113.485 48.2201 113.552Z" fill="#426BA6"/>
<path fill-rule="evenodd" clip-rule="evenodd" d="M80.6334 24.959C79.9728 25.0813 79.5659 25.4924 79.0957 26.2918C80.2629 27.1737 80.8485 27.8267 81.5462 29.0345C81.9215 28.4701 82.3539 28.2124 83.3011 27.8646C82.58 26.6424 81.7923 25.8553 80.6334 24.959Z" fill="#F0B84F"/>
<path fill-rule="evenodd" clip-rule="evenodd" d="M33.0898 94.6113C34.7849 95.1949 35.7177 95.6781 37.1378 96.8027C37.6987 96.1166 38.0576 95.432 38.1057 94.6058C37.2279 93.7596 35.9335 92.9739 34.1037 92.0879C34.1415 93.3905 33.9525 94.0614 33.0898 94.6113Z" fill="#F0B84F"/>
<path fill-rule="evenodd" clip-rule="evenodd" d="M116.418 49.9199C116.588 51.0369 116.297 52.2247 114.715 54.4711C115.786 54.9901 116.855 55.1468 118.326 54.9303C119.271 53.0963 119.684 51.9285 119.752 49.9261C118.596 50.3172 117.837 50.2457 116.418 49.9199Z" fill="#CEDA42"/>
<path fill-rule="evenodd" clip-rule="evenodd" d="M103.951 105.467C104.674 104.479 105.103 104.014 106.048 103.582C105.751 103.198 105.624 102.914 105.665 102.602C104.613 103 104.01 103.51 103.15 104.49C103.336 104.908 103.605 105.208 103.951 105.467Z" fill="#CEDA42"/>
<path fill-rule="evenodd" clip-rule="evenodd" d="M114.965 86.6562C114.658 86.7078 114.416 86.7807 114.215 86.9463C114.238 87.1532 114.293 87.277 114.399 87.3972C114.658 87.2165 114.829 87.1525 115.14 87.1189C114.997 86.9573 114.937 86.8425 114.965 86.6562Z" fill="#F0B84F"/>
<path fill-rule="evenodd" clip-rule="evenodd" d="M99.0312 98.8353C99.4051 98.5562 99.5845 98.3287 99.777 97.8345C99.2154 97.6709 98.9191 97.4709 98.6531 97.1602C98.2819 97.3959 98.0723 97.6159 97.7891 97.9953C98.2792 98.2009 98.5912 98.4304 99.0312 98.8353Z" fill="#426BA6"/>
<path fill-rule="evenodd" clip-rule="evenodd" d="M11.3398 72.8831C11.6526 74.6283 12.0341 75.6731 12.7352 76.986C13.7388 76.3605 14.2557 75.7907 14.618 75.1432C14.011 74.451 13.8598 73.7505 13.7209 72.6445C12.8191 73.1181 12.2383 73.1333 11.3398 72.8831Z" fill="#F0B84F"/>
<path fill-rule="evenodd" clip-rule="evenodd" d="M108.841 80.2069C108.671 79.8116 108.606 79.5978 108.644 79.2342C108.474 79.2562 108.366 79.2445 108.279 79.1758C108.211 79.5662 108.258 79.8398 108.403 80.2756C108.563 80.2935 108.702 80.2653 108.841 80.2069Z" fill="#CEDA42"/>
<path fill-rule="evenodd" clip-rule="evenodd" d="M100.962 39.3391C102.645 38.9336 103.656 38.8421 105.397 39.0209C105.498 38.1706 105.435 37.4261 105.045 36.7284C103.89 36.4947 102.427 36.5277 100.477 36.7573C101.184 37.798 101.379 38.4435 100.962 39.3391Z" fill="#F0B84F"/>
<path fill-rule="evenodd" clip-rule="evenodd" d="M107.37 101.735C107.438 101.47 107.501 101.321 107.654 101.092C107.543 101.015 107.434 100.968 107.309 100.971C107.19 101.115 107.087 101.322 106.974 101.611C107.172 101.59 107.277 101.61 107.37 101.735Z" fill="#F0B84F"/>
<path fill-rule="evenodd" clip-rule="evenodd" d="M88.6481 26.5833C88.923 26.0327 89.0866 25.5625 89.0536 25.0491C88.6976 24.8456 88.4357 24.7899 88.1195 24.8202C88.1085 25.4436 88.0122 25.7928 87.707 26.3276C88.1291 26.2857 88.3834 26.3242 88.6481 26.5833Z" fill="#426BA6"/>
<path fill-rule="evenodd" clip-rule="evenodd" d="M86.5562 107.332C87.28 107.739 87.9289 107.664 88.9875 107.504C88.551 105.208 88.7744 102.641 89.3092 99.6927C88.4506 99.78 87.8994 99.6254 87.0553 99.1875C86.3026 102.273 86.1527 104.065 86.5562 107.332Z" fill="#DA2C56"/>
<path fill-rule="evenodd" clip-rule="evenodd" d="M39.0356 52.8331C40.3313 51.8212 40.9238 51.1228 41.2428 49.3838C39.1078 47.6687 37.9578 46.4995 36.251 44.4277C35.7547 45.2801 35.2289 45.7647 34.7051 46.0809C36.7363 48.3967 37.6876 50.0773 39.0356 52.8331Z" fill="#DA2C56"/>
<path fill-rule="evenodd" clip-rule="evenodd" d="M82.599 115.012C82.1254 115.746 81.561 116.288 80.6777 116.888C82.6038 117.97 83.8363 118.794 85.0461 119.96C86.1397 119.577 86.5817 119.106 87.0862 118.361C86.2449 117.466 84.6013 116.226 82.599 115.012Z" fill="#426BA6"/>
<path fill-rule="evenodd" clip-rule="evenodd" d="M59.8633 40.058C61.3982 40.9351 62.1351 41.4767 62.9084 42.7628C63.4109 42.2727 63.7979 42.0452 64.2522 42.0528C63.5112 40.6086 62.6816 39.8256 61.1343 38.752C60.5651 39.086 60.1781 39.5204 59.8633 40.058Z" fill="#CEDA42"/>
<path fill-rule="evenodd" clip-rule="evenodd" d="M120.291 68.8842C120.309 68.6856 120.366 68.5667 120.565 68.4368C120.339 68.3068 120.16 68.2745 119.83 68.2367C119.678 68.3433 119.638 68.4423 119.619 68.6526C119.902 68.687 120.101 68.7323 120.291 68.8842Z" fill="#F0B84F"/>
<path fill-rule="evenodd" clip-rule="evenodd" d="M116.689 80.5648C116.835 80.7607 116.984 80.8363 117.251 80.8425C117.419 80.648 117.512 80.4837 117.527 80.2871C117.306 80.1235 117.207 79.9531 117.066 79.6465C116.975 80.0142 116.908 80.2397 116.689 80.5648Z" fill="#CEDA42"/>
<path fill-rule="evenodd" clip-rule="evenodd" d="M68.7209 112.948C67.9648 113.081 67.2685 113.003 66.4127 112.408C65.6085 114.831 65.4022 116.473 65.2441 118.905C66.5674 119.58 67.4438 119.639 68.0734 119.617C67.6562 117.04 67.9806 115.393 68.7209 112.948Z" fill="#DA2C56"/>
<path fill-rule="evenodd" clip-rule="evenodd" d="M43.0348 32.6837C42.7448 32.5778 42.6128 32.4328 42.4519 32.1895C42.1928 32.6225 41.9832 33.0851 41.957 33.3174C42.1605 33.4501 42.3612 33.512 42.6499 33.5615C42.6753 33.2982 42.8039 33.0659 43.0348 32.6837Z" fill="#CEDA42"/>
<path fill-rule="evenodd" clip-rule="evenodd" d="M31.7425 79.2158C31.7941 78.8459 31.9357 78.5359 32.3399 78.2294C31.3404 77.4925 30.6118 77.1502 29.5113 76.7109C28.9999 77.2203 28.8404 77.6176 28.7559 77.9111C30.0103 78.107 30.7231 78.505 31.7425 79.2158Z" fill="#DA2C56"/>
<path fill-rule="evenodd" clip-rule="evenodd" d="M53.5624 109.305C53.6291 109.802 53.5212 110.098 53.293 110.512C54.1082 110.558 54.9289 110.509 55.2816 110.371C55.3173 109.981 55.2561 109.646 55.109 109.195C54.7124 109.357 54.2842 109.348 53.5624 109.305Z" fill="#DA2C56"/>
<path fill-rule="evenodd" clip-rule="evenodd" d="M84.3385 115.245C84.9248 114.088 85.1139 113.39 84.7599 112.041C82.6599 111.531 81.4467 111.08 79.533 110.172C79.4636 110.947 79.2498 111.469 78.9824 111.87C81.2089 112.845 82.4516 113.727 84.3385 115.245Z" fill="#DA2C56"/>
<path fill-rule="evenodd" clip-rule="evenodd" d="M69.416 118.425C69.6071 118.527 69.7487 118.666 69.8346 118.948C70.4361 118.549 70.7681 118.22 71.2273 117.708C71.0513 117.327 70.8671 117.161 70.7234 117.057C70.366 117.701 70.0072 118.011 69.416 118.425Z" fill="#CEDA42"/>
<path fill-rule="evenodd" clip-rule="evenodd" d="M34.9772 103.826C35.1552 103.637 35.2308 103.514 35.2398 103.234C34.8651 103.018 34.6582 102.863 34.3427 102.58C34.285 102.724 34.2149 102.813 34.1406 102.875C34.5125 103.188 34.7015 103.427 34.9772 103.826Z" fill="#F0B84F"/>
<path fill-rule="evenodd" clip-rule="evenodd" d="M95.8242 42.1191C95.9074 44.5683 96.2215 46.0737 96.9199 48.0052C98.417 47.3508 99.2364 46.6737 99.8612 45.8592C99.1676 44.7924 99.1003 43.8046 99.1285 42.2649C97.8004 42.7323 97.0038 42.6395 95.8242 42.1191Z" fill="#426BA6"/>
<path fill-rule="evenodd" clip-rule="evenodd" d="M66.5692 122.527C65.7141 123.048 65.3491 123.633 65.2227 124.726C65.9609 125.482 66.596 125.927 67.3968 126.057C68.1482 125.215 68.8843 124.873 70.1931 124.409C68.7187 123.9 67.821 123.541 66.5692 122.527Z" fill="#426BA6"/>
<path fill-rule="evenodd" clip-rule="evenodd" d="M115.822 79.0041C116.027 79.4062 116.345 79.5677 116.872 79.8138C117.365 78.6432 118.238 77.5475 119.368 76.3735C118.953 76.1549 118.751 75.9191 118.5 75.4668C117.23 76.6374 116.622 77.4038 115.822 79.0041Z" fill="#DA2C56"/>
<path fill-rule="evenodd" clip-rule="evenodd" d="M108.162 49.916C107.409 50.5127 106.814 50.6254 105.906 50.6577C106.632 52.0462 107.52 53.3536 108.094 53.7997C108.772 53.4753 109.264 53.045 109.863 52.3597C109.205 51.8647 108.8 51.1471 108.162 49.916Z" fill="#F0B84F"/>
<path fill-rule="evenodd" clip-rule="evenodd" d="M78.6838 39.3666C78.0638 37.644 77.8472 36.7216 78.1023 35.1894C77.3764 35.2375 76.92 35.1564 76.5666 34.8457C76.1796 36.4817 76.3068 37.6564 76.8045 39.5419C77.4774 39.6615 78.0741 39.579 78.6838 39.3666Z" fill="#426BA6"/>
<path fill-rule="evenodd" clip-rule="evenodd" d="M62.5332 33.9809C63.4646 34.3624 63.921 34.6139 64.4531 35.2834C64.7012 34.9693 64.9026 34.8126 65.1597 34.783C64.6345 34.0221 64.108 33.6406 63.1539 33.1484C62.8576 33.3794 62.6707 33.6537 62.5332 33.9809Z" fill="#426BA6"/>
<path fill-rule="evenodd" clip-rule="evenodd" d="M90.2668 39.3086C90.2174 38.4776 89.774 37.916 88.8653 37.2148C87.6032 38.5133 86.7117 39.1333 85.1211 39.8049C85.7569 40.3521 86.0071 40.9226 86.2896 42.1386C87.9002 41.4409 88.9876 40.594 90.2668 39.3086Z" fill="#CEDA42"/>
<path fill-rule="evenodd" clip-rule="evenodd" d="M21.5316 76.4043C20.8772 76.8559 20.638 77.4979 20.5156 78.5895C22.2045 78.9772 23.1545 79.3985 24.4928 80.3664C24.6255 79.5738 24.9678 79.0858 25.8222 78.2513C24.4516 77.2793 23.2191 76.8112 21.5316 76.4043Z" fill="#DA2C56"/>
<path fill-rule="evenodd" clip-rule="evenodd" d="M112.639 66.3065C113.756 66.09 114.506 66.2178 115.532 67.1087C115.893 65.6576 115.79 64.6196 115.478 62.7445C114.649 62.0743 114.042 62.0083 112.855 62.2344C113.107 63.8456 113.175 65.0183 112.639 66.3065Z" fill="#F0B84F"/>
<path fill-rule="evenodd" clip-rule="evenodd" d="M100.32 34.8022C101.11 33.7574 102.332 33.0363 105.478 32.529C105.043 31.2202 104.304 30.205 102.934 29.1602C100.646 29.8613 99.3407 30.4641 97.625 32.0293C98.8863 32.672 99.4411 33.3601 100.32 34.8022Z" fill="#DA2C56"/>
<path fill-rule="evenodd" clip-rule="evenodd" d="M105.45 109.326C105.47 109.184 105.417 109.086 105.325 108.926C104.985 109.14 104.559 109.267 104.053 109.366C104.121 109.498 104.13 109.597 104.114 109.759C104.656 109.685 104.953 109.597 105.45 109.326Z" fill="#CEDA42"/>
<path fill-rule="evenodd" clip-rule="evenodd" d="M45.8498 119.637C45.8271 121.205 45.9818 122.178 46.3681 123.435C47.3456 123.062 47.8907 122.654 48.3148 122.153C47.9051 121.449 47.892 120.816 47.958 119.832C47.0947 120.09 46.5881 120.006 45.8498 119.637Z" fill="#CEDA42"/>
<path fill-rule="evenodd" clip-rule="evenodd" d="M31.3926 98.4348C31.5383 98.6657 31.6998 98.7627 31.9975 98.7922C32.2009 98.5881 32.3192 98.4128 32.3522 98.1942C32.1191 97.9928 32.0222 97.7941 31.8909 97.4395C31.7576 97.8429 31.6641 98.089 31.3926 98.4348Z" fill="#DA2C56"/>
<path fill-rule="evenodd" clip-rule="evenodd" d="M62.9588 19.9974C63.0688 19.9878 63.1678 20.0077 63.2833 20.1033C63.4283 19.7651 63.4771 19.5327 63.5293 19.1856C63.3479 19.0729 63.2228 19.0536 63.132 19.0488C63.1609 19.4235 63.0942 19.6558 62.9588 19.9974Z" fill="#426BA6"/>
<path fill-rule="evenodd" clip-rule="evenodd" d="M101.285 86.0872C101.756 86.9024 101.893 87.9136 101.348 90.1386C102.337 90.2156 103.215 90.0115 104.29 89.3956C104.466 87.6847 104.431 86.6522 103.875 85.0781C103.097 85.7332 102.486 85.9092 101.285 86.0872Z" fill="#CEDA42"/>
<path fill-rule="evenodd" clip-rule="evenodd" d="M54.2981 29.6934C53.6561 30.4399 52.7054 30.9224 50.3223 31.1534C50.5876 32.1563 51.0921 32.9522 52.071 33.7998C53.8197 33.3832 54.8274 32.9928 56.1877 31.9005C55.2728 31.3582 54.8892 30.8165 54.2981 29.6934Z" fill="#CEDA42"/>
<path fill-rule="evenodd" clip-rule="evenodd" d="M51.3954 40.9395C51.0964 41.1113 50.9087 41.1855 50.5664 41.2481C50.5953 41.4172 50.6489 41.5553 50.7616 41.6667C50.996 41.6468 51.273 41.5588 51.6325 41.4055C51.4387 41.246 51.3665 41.134 51.3954 40.9395Z" fill="#CEDA42"/>
<path fill-rule="evenodd" clip-rule="evenodd" d="M100.028 112.117C99.2261 111.14 98.4322 110.786 97.0464 110.818C96.2298 111.873 95.7851 112.744 95.7617 113.767C96.9454 114.559 97.5022 115.418 98.3098 116.972C98.6879 115.041 98.9794 113.857 100.028 112.117Z" fill="#426BA6"/>
<path fill-rule="evenodd" clip-rule="evenodd" d="M29.275 89.5607C27.8211 89.4974 26.9241 89.1145 25.913 87.6992C25.0304 89.3971 24.851 90.7203 24.6777 93.1481C25.5102 94.2294 26.2457 94.4926 27.7909 94.5655C27.9586 92.4841 28.2239 91.0042 29.275 89.5607Z" fill="#426BA6"/>
<path fill-rule="evenodd" clip-rule="evenodd" d="M45.6994 102.845C44.8401 102.133 43.8826 102.052 42.3614 102.303C42.479 104.731 42.2707 106.175 41.4727 108.35C42.5931 108.228 43.3829 108.504 44.834 109.342C45.6251 107.121 45.7908 105.278 45.6994 102.845Z" fill="#DA2C56"/>
<path fill-rule="evenodd" clip-rule="evenodd" d="M93.7074 38.8573C93.9343 38.8868 94.093 38.8009 94.3474 38.651C94.0003 38.1087 93.7927 37.4289 93.6263 36.6191C93.416 36.7298 93.2593 36.747 92.998 36.7216C93.1232 37.5884 93.2689 38.0626 93.7074 38.8573Z" fill="#CEDA42"/>
<path fill-rule="evenodd" clip-rule="evenodd" d="M59.0971 110.547C60.3605 110.791 61.2122 110.553 62.2769 109.625C62.2302 108.269 62.0123 107.297 61.3655 106.481C59.9233 106.631 58.9287 106.318 57.2852 105.627C58.2447 107.385 58.7864 108.502 59.0971 110.547Z" fill="#426BA6"/>
<path fill-rule="evenodd" clip-rule="evenodd" d="M25.7988 69.1172C25.9397 69.3138 25.9989 69.5681 25.915 70.1476C26.1693 70.1435 26.3872 70.0692 26.6457 69.8864C26.6484 69.4465 26.6141 69.1839 26.434 68.7969C26.2518 68.9832 26.1006 69.0423 25.7988 69.1172Z" fill="#426BA6"/>
<path fill-rule="evenodd" clip-rule="evenodd" d="M38.9087 28.4538L33.0941 18.627L31.5723 20.0883L38.9087 28.4538Z" fill="#C92135"/>
<path fill-rule="evenodd" clip-rule="evenodd" d="M101.289 107.168L110.251 130.563L113.269 127.925L101.289 107.168Z" fill="#C92135"/>
<path fill-rule="evenodd" clip-rule="evenodd" d="M92.7598 20.5466L99.6405 1.04482L96.4256 0L92.7598 20.5466Z" fill="#C92135"/>
<path fill-rule="evenodd" clip-rule="evenodd" d="M114.549 97.4434L136.403 117.221L138.166 112.847L114.549 97.4434Z" fill="#C92135"/>
<path fill-rule="evenodd" clip-rule="evenodd" d="M22.5279 81.9512L12.2598 82.4612L12.7856 84.2869L22.5279 81.9512Z" fill="#C92135"/>
<path fill-rule="evenodd" clip-rule="evenodd" d="M38.9206 109.117L33.834 120.117L36.9183 118.755L38.9206 109.117Z" fill="#C92135"/>
<path fill-rule="evenodd" clip-rule="evenodd" d="M58.8589 25.602C58.8328 25.3347 53.3241 9.41074 53.3241 9.41074L49.1895 6.66602L58.8589 25.602Z" fill="#C92135"/>
<path fill-rule="evenodd" clip-rule="evenodd" d="M12.3116 44.8424L31.6373 50.8687L6 39.2891L12.3116 44.8424Z" fill="#C92135"/>
<path fill-rule="evenodd" clip-rule="evenodd" d="M106.664 42.3001L133.099 28.5064L129.5 24.334L106.664 42.3001Z" fill="#C92135"/>
<path fill-rule="evenodd" clip-rule="evenodd" d="M74.9942 134.143L73.0001 111.617L71.5449 140L74.9942 134.143Z" fill="#C92135"/>
<path fill-rule="evenodd" clip-rule="evenodd" d="M130.217 77.947L145.35 80.1879L145.655 77.7051L130.217 77.947Z" fill="#C92135"/>
<path fill-rule="evenodd" clip-rule="evenodd" d="M116.908 56.3888L128.904 55.0917L128.164 52.9883L116.908 56.3888Z" fill="#C92135"/>
<path d="M64.7499 88.1847C63.635 88.1847 62.5202 87.7617 61.6691 86.9106L49.8586 75.1002C48.1565 73.398 48.1565 70.6408 49.8586 68.9436C51.5608 67.2415 54.3131 67.2365 56.0152 68.9386L64.7499 77.6733L85.295 57.1282C86.9971 55.426 89.7494 55.426 91.4515 57.1282C93.1537 58.8303 93.1537 61.5876 91.4515 63.2897L67.8306 86.9106C66.9796 87.7617 65.8647 88.1847 64.7499 88.1847Z" fill="#F4A11D"/>
</svg>
