<svg width="17" height="20" viewBox="0 0 17 20" fill="none" xmlns="http://www.w3.org/2000/svg">
<path fill-rule="evenodd" clip-rule="evenodd" d="M11.9215 0C11.9557 0 11.9892 0.00303044 12.0219 0.00884992L12.1308 0.00955358C12.2932 0.00955358 12.4485 0.0791103 12.5615 0.202301L16.594 4.6246C16.7007 4.74109 16.7605 4.8978 16.7605 5.05954V12.741C16.7723 14.4843 15.7049 15.9632 14.1994 16.4664C14.3143 16.0849 14.3749 15.6778 14.372 15.2551V15.0156C15.0936 14.5524 15.5726 13.7092 15.5662 12.746L15.5662 5.85199L13.966 5.85282C13.5238 5.85155 13.1066 5.73547 12.7401 5.53155L11.5801 4.25946C11.4162 3.89746 11.3244 3.49282 11.3244 3.06636L11.3243 1.26627L6.82453 1.2666C5.93995 1.2666 5.15595 1.77227 4.72602 2.52361L4.43451 2.52365C4.05884 2.52365 3.69527 2.58511 3.35263 2.69909C3.82156 1.14121 5.21086 0.00955358 6.82293 0.00955358L11.8212 0.00884992C11.8538 0.00303044 11.8873 0 11.9215 0ZM12.5186 3.06636L12.5185 1.97105L14.9117 4.59494L13.9676 4.59577C13.1691 4.59326 12.5186 3.90775 12.5186 3.06636ZM8.83729 3.36098C8.80466 3.35516 8.77113 3.35213 8.73694 3.35213C8.70275 3.35213 8.66922 3.35516 8.63659 3.36098L3.63837 3.36169C1.67747 3.36169 0.0461762 5.03608 0 7.11524L0.0002403 16.26C0.0478978 18.2931 1.61223 19.9536 3.56273 20H3.64951L10.0338 19.9992C12.0345 19.9137 13.5901 18.1957 13.5759 16.0931V8.41168C13.5759 8.24994 13.5161 8.09322 13.4094 7.97674L9.37696 3.55443C9.2639 3.43124 9.10866 3.36169 8.94624 3.36169L8.83729 3.36098ZM3.63996 4.61874L8.13975 4.6184L8.13983 6.4185C8.13983 7.95042 9.32449 9.20077 10.7814 9.20496L12.3816 9.20412L12.3817 16.0981C12.3911 17.5228 11.3387 18.6851 10.0099 18.743H3.5898C2.23955 18.7111 1.16476 17.5286 1.19421 16.0931V7.13032C1.22526 5.74338 2.32075 4.61874 3.63996 4.61874ZM9.33397 5.32319L9.33404 6.4185C9.33404 7.25988 9.98449 7.94539 10.783 7.94791L11.7272 7.94707L9.33397 5.32319Z" fill="#9E9E9E"/>
</svg>
