<svg width="44" height="44" viewBox="0 0 44 44" fill="none" xmlns="http://www.w3.org/2000/svg">
<path d="M22.7493 1.16699C22.7493 0.752779 22.4136 0.416992 21.9993 0.416992C21.5851 0.416992 21.2493 0.752779 21.2493 1.16699H22.7493ZM21.2493 9.50033C21.2493 9.91454 21.5851 10.2503 21.9993 10.2503C22.4136 10.2503 22.7493 9.91454 22.7493 9.50033H21.2493ZM22.7493 34.5003C22.7493 34.0861 22.4136 33.7503 21.9993 33.7503C21.5851 33.7503 21.2493 34.0861 21.2493 34.5003H22.7493ZM21.2493 42.8337C21.2493 43.2479 21.5851 43.5837 21.9993 43.5837C22.4136 43.5837 22.7493 43.2479 22.7493 42.8337H21.2493ZM7.80051 6.74083C7.50762 6.44794 7.03275 6.44794 6.73985 6.74083C6.44696 7.03372 6.44696 7.5086 6.73985 7.80149L7.80051 6.74083ZM12.6357 13.6973C12.9286 13.9902 13.4035 13.9902 13.6963 13.6973C13.9892 13.4044 13.9892 12.9296 13.6963 12.6367L12.6357 13.6973ZM31.363 30.3033C31.0701 30.0104 30.5952 30.0104 30.3024 30.3033C30.0095 30.5962 30.0095 31.0711 30.3024 31.364L31.363 30.3033ZM36.1982 37.2598C36.4911 37.5527 36.966 37.5527 37.2588 37.2598C37.5517 36.9669 37.5517 36.4921 37.2588 36.1992L36.1982 37.2598ZM1.16602 21.2503C0.751802 21.2503 0.416016 21.5861 0.416016 22.0003C0.416016 22.4145 0.751802 22.7503 1.16602 22.7503V21.2503ZM9.49935 22.7503C9.91356 22.7503 10.2493 22.4145 10.2493 22.0003C10.2493 21.5861 9.91356 21.2503 9.49935 21.2503V22.7503ZM34.4993 21.2503C34.0851 21.2503 33.7493 21.5861 33.7493 22.0003C33.7493 22.4145 34.0851 22.7503 34.4993 22.7503V21.2503ZM42.8327 22.7503C43.2469 22.7503 43.5827 22.4145 43.5827 22.0003C43.5827 21.5861 43.2469 21.2503 42.8327 21.2503V22.7503ZM6.73985 36.1992C6.44696 36.4921 6.44696 36.9669 6.73985 37.2598C7.03275 37.5527 7.50762 37.5527 7.80051 37.2598L6.73985 36.1992ZM13.6963 31.364C13.9892 31.0711 13.9892 30.5962 13.6963 30.3033C13.4035 30.0104 12.9286 30.0104 12.6357 30.3033L13.6963 31.364ZM30.3024 12.6367C30.0095 12.9296 30.0095 13.4044 30.3024 13.6973C30.5952 13.9902 31.0701 13.9902 31.363 13.6973L30.3024 12.6367ZM37.2588 7.80149C37.5517 7.5086 37.5517 7.03372 37.2588 6.74083C36.966 6.44794 36.4911 6.44794 36.1982 6.74083L37.2588 7.80149ZM21.2493 1.16699V9.50033H22.7493V1.16699H21.2493ZM21.2493 34.5003V42.8337H22.7493V34.5003H21.2493ZM6.73985 7.80149L12.6357 13.6973L13.6963 12.6367L7.80051 6.74083L6.73985 7.80149ZM30.3024 31.364L36.1982 37.2598L37.2588 36.1992L31.363 30.3033L30.3024 31.364ZM1.16602 22.7503H9.49935V21.2503H1.16602V22.7503ZM34.4993 22.7503H42.8327V21.2503H34.4993V22.7503ZM7.80051 37.2598L13.6963 31.364L12.6357 30.3033L6.73985 36.1992L7.80051 37.2598ZM31.363 13.6973L37.2588 7.80149L36.1982 6.74083L30.3024 12.6367L31.363 13.6973Z" fill="#EA6212"/>
</svg>
