<svg width="22" height="25" viewBox="0 0 22 25" fill="none" xmlns="http://www.w3.org/2000/svg">
<path fill-rule="evenodd" clip-rule="evenodd" d="M5.836 8.39258H16.414C19.3608 8.39258 21.75 10.7291 21.75 13.6109V19.782C21.75 22.6638 19.3608 25.0003 16.414 25.0003H5.836C2.8892 25.0003 0.5 22.6638 0.5 19.782V13.6109C0.5 10.7291 2.8892 8.39258 5.836 8.39258ZM11.1186 19.1621C11.741 19.1621 12.2364 18.6777 12.2364 18.069V15.3114C12.2364 14.7152 11.741 14.2307 11.1186 14.2307C10.509 14.2307 10.0136 14.7152 10.0136 15.3114V18.069C10.0136 18.6777 10.509 19.1621 11.1186 19.1621Z" fill="url(#paint0_linear_10_3765)"/>
<path opacity="0.4" d="M18.0294 6.74494V8.58334C17.5849 8.45912 17.1149 8.39701 16.6322 8.39701H15.8066V6.74494C15.8066 4.22335 13.7109 2.17378 11.1324 2.17378C8.55395 2.17378 6.45816 4.21093 6.44546 6.7201V8.39701H5.63255C5.13718 8.39701 4.66722 8.45912 4.22266 8.59576V6.74494C4.23536 3.01845 7.32188 0 11.107 0C14.9429 0 18.0294 3.01845 18.0294 6.74494Z" fill="#161616"/>
<defs>
<linearGradient id="paint0_linear_10_3765" x1="0.5" y1="8.39258" x2="0.5" y2="25.0003" gradientUnits="userSpaceOnUse">
<stop stop-color="#F69B29"/>
<stop offset="1" stop-color="#EA6212"/>
</linearGradient>
</defs>
</svg>
