<svg width="9" height="15" viewBox="0 0 9 15" fill="none" xmlns="http://www.w3.org/2000/svg">
<path d="M1.00598 15C0.439465 15 -0.000220299 14.5603 -0.000220299 14.0023C-0.000220299 13.7232 0.1097 13.4696 0.304176 13.2751L6.223 7.49154L0.304176 1.72492C0.1097 1.53044 -0.000220299 1.26832 -0.000220299 0.997745C-0.000220299 0.439684 0.439465 0 1.00598 0C1.27656 0 1.51331 0.101466 1.69933 0.287486L8.27768 6.71364C8.51444 6.93348 8.63281 7.20406 8.63281 7.5C8.63281 7.79594 8.51444 8.04961 8.28614 8.2779L1.70778 14.7125C1.51331 14.8985 1.27656 15 1.00598 15Z" fill="white"/>
</svg>
