<svg width="71" height="71" viewBox="0 0 71 71" fill="none" xmlns="http://www.w3.org/2000/svg">
<ellipse cx="35.1562" cy="35.4962" rx="35.1562" ry="35.4962" fill="#F9F9F9"/>
<path fill-rule="evenodd" clip-rule="evenodd" d="M27.39 32.9031C26.2502 32.9031 25.998 31.3017 27.0827 30.9514L33.7318 28.8043C33.9316 28.7398 34.1466 28.7398 34.3464 28.8043L40.9955 30.9514C42.0801 31.3017 41.828 32.9031 40.6882 32.9031H27.39Z" stroke="#979797"/>
<mask id="path-3-inside-1_335_11504" fill="white">
<path fill-rule="evenodd" clip-rule="evenodd" d="M28.5039 34.6191C28.5039 34.343 28.28 34.1191 28.0039 34.1191C27.7278 34.1191 27.5039 34.343 27.5039 34.6191V40.5999C27.5039 40.8761 27.7278 41.0999 28.0039 41.0999C28.28 41.0999 28.5039 40.8761 28.5039 40.5999V34.6191ZM32.4674 34.6191C32.4674 34.343 32.2436 34.1191 31.9674 34.1191C31.6913 34.1191 31.4674 34.343 31.4674 34.6191V40.5999C31.4674 40.8761 31.6913 41.0999 31.9674 41.0999C32.2436 41.0999 32.4674 40.8761 32.4674 40.5999V34.6191ZM35.931 34.1191C36.2071 34.1191 36.431 34.343 36.431 34.6191V38.6191C36.431 38.8953 36.2071 39.1191 35.931 39.1191C35.6548 39.1191 35.431 38.8953 35.431 38.6191V34.6191C35.431 34.343 35.6548 34.1191 35.931 34.1191ZM40.3945 34.6191C40.3945 34.343 40.1707 34.1191 39.8945 34.1191C39.6184 34.1191 39.3945 34.343 39.3945 34.6191V36.0191C39.3945 36.2953 39.6184 36.5191 39.8945 36.5191C40.1707 36.5191 40.3945 36.2953 40.3945 36.0191V34.6191Z"/>
</mask>
<path d="M28.0039 35.1191C27.7278 35.1191 27.5039 34.8953 27.5039 34.6191H29.5039C29.5039 33.7907 28.8323 33.1191 28.0039 33.1191V35.1191ZM28.5039 34.6191C28.5039 34.8953 28.28 35.1191 28.0039 35.1191V33.1191C27.1755 33.1191 26.5039 33.7907 26.5039 34.6191H28.5039ZM28.5039 40.5999V34.6191H26.5039V40.5999H28.5039ZM28.0039 40.0999C28.28 40.0999 28.5039 40.3238 28.5039 40.5999H26.5039C26.5039 41.4283 27.1755 42.0999 28.0039 42.0999V40.0999ZM27.5039 40.5999C27.5039 40.3238 27.7278 40.0999 28.0039 40.0999V42.0999C28.8323 42.0999 29.5039 41.4283 29.5039 40.5999H27.5039ZM27.5039 34.6191V40.5999H29.5039V34.6191H27.5039ZM31.9674 35.1191C31.6913 35.1191 31.4674 34.8953 31.4674 34.6191H33.4674C33.4674 33.7907 32.7959 33.1191 31.9674 33.1191V35.1191ZM32.4674 34.6191C32.4674 34.8953 32.2436 35.1191 31.9674 35.1191V33.1191C31.139 33.1191 30.4674 33.7907 30.4674 34.6191H32.4674ZM32.4674 40.5999V34.6191H30.4674V40.5999H32.4674ZM31.9674 40.0999C32.2436 40.0999 32.4674 40.3238 32.4674 40.5999H30.4674C30.4674 41.4283 31.139 42.0999 31.9674 42.0999V40.0999ZM31.4674 40.5999C31.4674 40.3238 31.6913 40.0999 31.9674 40.0999V42.0999C32.7959 42.0999 33.4674 41.4283 33.4674 40.5999H31.4674ZM31.4674 34.6191V40.5999H33.4674V34.6191H31.4674ZM37.431 34.6191C37.431 33.7907 36.7594 33.1191 35.931 33.1191V35.1191C35.6548 35.1191 35.431 34.8953 35.431 34.6191H37.431ZM37.431 38.6191V34.6191H35.431V38.6191H37.431ZM35.931 40.1191C36.7594 40.1191 37.431 39.4476 37.431 38.6191H35.431C35.431 38.343 35.6548 38.1191 35.931 38.1191V40.1191ZM34.431 38.6191C34.431 39.4476 35.1026 40.1191 35.931 40.1191V38.1191C36.2071 38.1191 36.431 38.343 36.431 38.6191H34.431ZM34.431 34.6191V38.6191H36.431V34.6191H34.431ZM35.931 33.1191C35.1026 33.1191 34.431 33.7907 34.431 34.6191H36.431C36.431 34.8953 36.2071 35.1191 35.931 35.1191V33.1191ZM39.8945 35.1191C39.6184 35.1191 39.3945 34.8953 39.3945 34.6191H41.3945C41.3945 33.7907 40.723 33.1191 39.8945 33.1191V35.1191ZM40.3945 34.6191C40.3945 34.8953 40.1707 35.1191 39.8945 35.1191V33.1191C39.0661 33.1191 38.3945 33.7907 38.3945 34.6191H40.3945ZM40.3945 36.0191V34.6191H38.3945V36.0191H40.3945ZM39.8945 35.5191C40.1707 35.5191 40.3945 35.743 40.3945 36.0191H38.3945C38.3945 36.8476 39.0661 37.5191 39.8945 37.5191V35.5191ZM39.3945 36.0191C39.3945 35.743 39.6184 35.5191 39.8945 35.5191V37.5191C40.723 37.5191 41.3945 36.8476 41.3945 36.0191H39.3945ZM39.3945 34.6191V36.0191H41.3945V34.6191H39.3945Z" fill="#979797" mask="url(#path-3-inside-1_335_11504)"/>
<path d="M33.8982 43.7729H26.8396C26.3759 43.7729 26 43.397 26 42.9333C26 42.4697 26.3759 42.0938 26.8396 42.0938H33.8982V42.0938" stroke="#979797" stroke-linecap="round" stroke-linejoin="round"/>
<circle r="4.5" transform="matrix(-1 0 0 1 41 42.7559)" stroke="#979797"/>
<path d="M43 43.0892H39" stroke="#979797" stroke-linecap="round" stroke-linejoin="round"/>
<path d="M41.666 41.7559L42.9993 43.0892L41.666 44.4225" stroke="#979797" stroke-linecap="round" stroke-linejoin="round"/>
</svg>
