<svg width="71" height="71" viewBox="0 0 71 71" fill="none" xmlns="http://www.w3.org/2000/svg">
<ellipse cx="35.1562" cy="35.4962" rx="35.1562" ry="35.4962" fill="#F4A11D"/>
<path fill-rule="evenodd" clip-rule="evenodd" d="M27.39 32.9031C26.2502 32.9031 25.998 31.3017 27.0827 30.9514L33.7318 28.8043C33.9316 28.7398 34.1466 28.7398 34.3464 28.8043L40.9955 30.9514C42.0801 31.3017 41.828 32.9031 40.6882 32.9031H27.39Z" stroke="white" stroke-width="1.2"/>
<mask id="path-3-inside-1_335_12691" fill="white">
<path fill-rule="evenodd" clip-rule="evenodd" d="M28.5039 34.6191C28.5039 34.343 28.28 34.1191 28.0039 34.1191C27.7278 34.1191 27.5039 34.343 27.5039 34.6191V40.5999C27.5039 40.8761 27.7278 41.0999 28.0039 41.0999C28.28 41.0999 28.5039 40.8761 28.5039 40.5999V34.6191ZM32.4674 34.6191C32.4674 34.343 32.2436 34.1191 31.9674 34.1191C31.6913 34.1191 31.4674 34.343 31.4674 34.6191V40.5999C31.4674 40.8761 31.6913 41.0999 31.9674 41.0999C32.2436 41.0999 32.4674 40.8761 32.4674 40.5999V34.6191ZM35.931 34.1191C36.2071 34.1191 36.431 34.343 36.431 34.6191V38.6191C36.431 38.8953 36.2071 39.1191 35.931 39.1191C35.6548 39.1191 35.431 38.8953 35.431 38.6191V34.6191C35.431 34.343 35.6548 34.1191 35.931 34.1191ZM40.3945 34.6191C40.3945 34.343 40.1707 34.1191 39.8945 34.1191C39.6184 34.1191 39.3945 34.343 39.3945 34.6191V36.0191C39.3945 36.2953 39.6184 36.5191 39.8945 36.5191C40.1707 36.5191 40.3945 36.2953 40.3945 36.0191V34.6191Z"/>
</mask>
<path d="M28.0039 35.3191C27.6173 35.3191 27.3039 35.0057 27.3039 34.6191H29.7039C29.7039 33.6803 28.9428 32.9191 28.0039 32.9191V35.3191ZM28.7039 34.6191C28.7039 35.0057 28.3905 35.3191 28.0039 35.3191V32.9191C27.065 32.9191 26.3039 33.6803 26.3039 34.6191H28.7039ZM28.7039 40.5999V34.6191H26.3039V40.5999H28.7039ZM28.0039 39.8999C28.3905 39.8999 28.7039 40.2133 28.7039 40.5999H26.3039C26.3039 41.5388 27.065 42.2999 28.0039 42.2999V39.8999ZM27.3039 40.5999C27.3039 40.2133 27.6173 39.8999 28.0039 39.8999V42.2999C28.9428 42.2999 29.7039 41.5388 29.7039 40.5999H27.3039ZM27.3039 34.6191V40.5999H29.7039V34.6191H27.3039ZM31.9674 35.3191C31.5808 35.3191 31.2674 35.0057 31.2674 34.6191H33.6674C33.6674 33.6803 32.9063 32.9191 31.9674 32.9191V35.3191ZM32.6674 34.6191C32.6674 35.0057 32.354 35.3191 31.9674 35.3191V32.9191C31.0286 32.9191 30.2674 33.6803 30.2674 34.6191H32.6674ZM32.6674 40.5999V34.6191H30.2674V40.5999H32.6674ZM31.9674 39.8999C32.354 39.8999 32.6674 40.2133 32.6674 40.5999H30.2674C30.2674 41.5388 31.0286 42.2999 31.9674 42.2999V39.8999ZM31.2674 40.5999C31.2674 40.2133 31.5808 39.8999 31.9674 39.8999V42.2999C32.9063 42.2999 33.6674 41.5388 33.6674 40.5999H31.2674ZM31.2674 34.6191V40.5999H33.6674V34.6191H31.2674ZM37.631 34.6191C37.631 33.6803 36.8699 32.9191 35.931 32.9191V35.3191C35.5444 35.3191 35.231 35.0057 35.231 34.6191H37.631ZM37.631 38.6191V34.6191H35.231V38.6191H37.631ZM35.931 40.3191C36.8699 40.3191 37.631 39.558 37.631 38.6191H35.231C35.231 38.2325 35.5444 37.9191 35.931 37.9191V40.3191ZM34.231 38.6191C34.231 39.558 34.9921 40.3191 35.931 40.3191V37.9191C36.3176 37.9191 36.631 38.2325 36.631 38.6191H34.231ZM34.231 34.6191V38.6191H36.631V34.6191H34.231ZM35.931 32.9191C34.9921 32.9191 34.231 33.6803 34.231 34.6191H36.631C36.631 35.0057 36.3176 35.3191 35.931 35.3191V32.9191ZM39.8945 35.3191C39.5079 35.3191 39.1945 35.0057 39.1945 34.6191H41.5945C41.5945 33.6803 40.8334 32.9191 39.8945 32.9191V35.3191ZM40.5945 34.6191C40.5945 35.0057 40.2811 35.3191 39.8945 35.3191V32.9191C38.9556 32.9191 38.1945 33.6803 38.1945 34.6191H40.5945ZM40.5945 36.0191V34.6191H38.1945V36.0191H40.5945ZM39.8945 35.3191C40.2811 35.3191 40.5945 35.6325 40.5945 36.0191H38.1945C38.1945 36.958 38.9556 37.7191 39.8945 37.7191V35.3191ZM39.1945 36.0191C39.1945 35.6325 39.5079 35.3191 39.8945 35.3191V37.7191C40.8334 37.7191 41.5945 36.958 41.5945 36.0191H39.1945ZM39.1945 34.6191V36.0191H41.5945V34.6191H39.1945Z" fill="white" mask="url(#path-3-inside-1_335_12691)"/>
<path d="M33.8982 43.772H26.8396C26.3759 43.772 26 43.3961 26 42.9324C26 42.4687 26.3759 42.0928 26.8396 42.0928H33.8982V42.0928" stroke="white" stroke-width="1.2" stroke-linecap="round" stroke-linejoin="round"/>
<circle r="4.4" transform="matrix(-1 0 0 1 41 42.7559)" stroke="white" stroke-width="1.2"/>
<path d="M43 43.0892H39" stroke="white" stroke-width="1.2" stroke-linecap="round" stroke-linejoin="round"/>
<path d="M41.666 41.7559L42.9993 43.0892L41.666 44.4225" stroke="white" stroke-width="1.2" stroke-linecap="round" stroke-linejoin="round"/>
</svg>
