<svg width="71" height="71" viewBox="0 0 71 71" fill="none" xmlns="http://www.w3.org/2000/svg">
<ellipse cx="35.5938" cy="35.4962" rx="35.1562" ry="35.4962" fill="#F4A11D"/>
<circle cx="35" cy="35" r="9.25" stroke="white" stroke-width="1.5" stroke-linecap="round" stroke-linejoin="round"/>
<path d="M35.0723 31C35.0723 31 35.0723 32.6667 35.0723 33.5C35.0723 34.3333 35.0723 36 35.0723 36" stroke="white" stroke-width="1.5"/>
<path d="M39.1465 33.959C39.1465 33.959 37.8132 34.3119 37.1465 34.4884C36.4798 34.6649 35.1465 35.0178 35.1465 35.0178" stroke="white" stroke-width="1.5"/>
<path d="M37.5918 38.748C37.5918 38.748 36.5918 37.4147 36.0918 36.748C35.5918 36.0814 34.5918 34.748 34.5918 34.748" stroke="white" stroke-width="1.5"/>
<path d="M32.5566 38.748C32.5566 38.748 33.5566 37.4147 34.0566 36.748C34.5566 36.0814 35.5566 34.748 35.5566 34.748" stroke="white" stroke-width="1.5"/>
<path d="M31 33.959C31 33.959 32.3333 34.2923 33 34.459C33.6667 34.6257 35 34.959 35 34.959" stroke="white" stroke-width="1.5"/>
</svg>
